STARTFONT 2.3
FONT -FontForge-Satisfy-Book-R-Normal--11-110-72-72-P-47-ISO10646-1
SIZE 11 72 72  2
FONTBOUNDINGBOX 14 17 -3 -6
COMMENT "Generated by fontforge, http://fontforge.sourceforge.net"
COMMENT "Copyright (c) 2011 by Font Diner, Inc. All rights reserved."
STARTPROPERTIES 40
FOUNDRY "FontForge"
FAMILY_NAME "Satisfy"
WEIGHT_NAME "Book"
SLANT "R"
SETWIDTH_NAME "Normal"
ADD_STYLE_NAME ""
PIXEL_SIZE 11
POINT_SIZE 110
RESOLUTION_X 72
RESOLUTION_Y 72
SPACING "P"
AVERAGE_WIDTH 47
CHARSET_REGISTRY "ISO10646"
CHARSET_ENCODING "1"
FONTNAME_REGISTRY ""
CHARSET_COLLECTIONS "ISO10646-1"
BITS_PER_PIXEL 2
FONT_NAME "Satisfy-Regular"
FACE_NAME "Satisfy Regular"
COPYRIGHT "Copyright (c) 2011 by Font Diner, Inc. All rights reserved."
FONT_VERSION "1.001"
FONT_ASCENT 9
FONT_DESCENT 2
UNDERLINE_POSITION -1
UNDERLINE_THICKNESS 1
X_HEIGHT 4
CAP_HEIGHT 7
RAW_ASCENT 799
RAW_DESCENT 200
NORM_SPACE 3
RELATIVE_WEIGHT 40
RELATIVE_SETWIDTH 50
SUPERSCRIPT_X 0
SUPERSCRIPT_Y 5
SUPERSCRIPT_SIZE 7
SUBSCRIPT_X 0
SUBSCRIPT_Y 1
SUBSCRIPT_SIZE 7
AVG_LOWERCASE_WIDTH 44
AVG_UPPERCASE_WIDTH 61
ENDPROPERTIES
CHARS 227
STARTCHAR space
ENCODING 32
SWIDTH 280 0
DWIDTH 3 0
BBX 1 1 0 0
BITMAP
00
ENDCHAR
STARTCHAR exclam
ENCODING 33
SWIDTH 249 0
DWIDTH 3 0
BBX 3 9 0 -1
BITMAP
18
28
24
30
60
50
40
80
40
ENDCHAR
STARTCHAR quotedbl
ENCODING 34
SWIDTH 249 0
DWIDTH 3 0
BBX 4 3 0 5
BITMAP
25
68
58
ENDCHAR
STARTCHAR numbersign
ENCODING 35
SWIDTH 417 0
DWIDTH 5 0
BBX 5 6 0 1
BITMAP
0940
6A40
6640
BA40
5800
4800
ENDCHAR
STARTCHAR dollar
ENCODING 36
SWIDTH 292 0
DWIDTH 3 0
BBX 5 8 -1 0
BITMAP
0200
0940
1580
1800
0800
1500
6900
2400
ENDCHAR
STARTCHAR percent
ENCODING 37
SWIDTH 574 0
DWIDTH 6 0
BBX 6 8 0 0
BITMAP
2820
5590
8980
6600
0990
1A20
2220
9290
ENDCHAR
STARTCHAR ampersand
ENCODING 38
SWIDTH 460 0
DWIDTH 5 0
BBX 6 9 -1 -1
BITMAP
0150
0290
0740
0A00
2A00
6300
9350
7B80
0540
ENDCHAR
STARTCHAR quotesingle
ENCODING 39
SWIDTH 113 0
DWIDTH 1 0
BBX 2 3 0 5
BITMAP
20
60
50
ENDCHAR
STARTCHAR parenleft
ENCODING 40
SWIDTH 234 0
DWIDTH 3 0
BBX 4 10 0 -1
BITMAP
05
08
24
20
60
90
80
80
80
50
ENDCHAR
STARTCHAR parenright
ENCODING 41
SWIDTH 204 0
DWIDTH 2 0
BBX 3 10 -1 -1
BITMAP
08
08
08
08
0C
08
14
20
60
80
ENDCHAR
STARTCHAR asterisk
ENCODING 42
SWIDTH 327 0
DWIDTH 4 0
BBX 4 4 0 4
BITMAP
08
6A
29
15
ENDCHAR
STARTCHAR plus
ENCODING 43
SWIDTH 350 0
DWIDTH 4 0
BBX 4 4 0 2
BITMAP
08
69
65
20
ENDCHAR
STARTCHAR comma
ENCODING 44
SWIDTH 200 0
DWIDTH 2 0
BBX 1 2 0 -1
BITMAP
80
80
ENDCHAR
STARTCHAR hyphen
ENCODING 45
SWIDTH 353 0
DWIDTH 4 0
BBX 4 1 0 3
BITMAP
A9
ENDCHAR
STARTCHAR period
ENCODING 46
SWIDTH 213 0
DWIDTH 2 0
BBX 1 1 0 0
BITMAP
80
ENDCHAR
STARTCHAR slash
ENCODING 47
SWIDTH 262 0
DWIDTH 3 0
BBX 5 8 -1 0
BITMAP
0080
0140
0200
0900
0800
2000
6000
8000
ENDCHAR
STARTCHAR zero
ENCODING 48
SWIDTH 489 0
DWIDTH 5 0
BBX 5 8 0 0
BITMAP
0A40
1480
3080
60C0
9180
9240
9300
6900
ENDCHAR
STARTCHAR one
ENCODING 49
SWIDTH 272 0
DWIDTH 3 0
BBX 3 8 0 0
BITMAP
18
28
24
20
20
60
90
90
ENDCHAR
STARTCHAR two
ENCODING 50
SWIDTH 448 0
DWIDTH 5 0
BBX 6 8 -1 0
BITMAP
06A0
0C60
0490
0080
0240
0900
2400
7F80
ENDCHAR
STARTCHAR three
ENCODING 51
SWIDTH 462 0
DWIDTH 5 0
BBX 5 9 0 -1
BITMAP
1A40
3080
2180
0600
1A00
0240
8300
A900
1000
ENDCHAR
STARTCHAR four
ENCODING 52
SWIDTH 452 0
DWIDTH 5 0
BBX 5 8 0 0
BITMAP
0280
0A40
2600
6200
EB40
0600
0900
0900
ENDCHAR
STARTCHAR five
ENCODING 53
SWIDTH 444 0
DWIDTH 5 0
BBX 5 9 0 -1
BITMAP
1BC0
2040
2000
6A00
6200
0200
8600
B800
1000
ENDCHAR
STARTCHAR six
ENCODING 54
SWIDTH 477 0
DWIDTH 5 0
BBX 5 8 0 0
BITMAP
0680
1980
2000
7A40
7180
9240
5200
2900
ENDCHAR
STARTCHAR seven
ENCODING 55
SWIDTH 406 0
DWIDTH 4 0
BBX 5 8 0 0
BITMAP
2E80
1180
0200
0900
1800
2400
3000
6000
ENDCHAR
STARTCHAR eight
ENCODING 56
SWIDTH 444 0
DWIDTH 5 0
BBX 5 9 0 -1
BITMAP
0980
2480
2640
1D00
2900
8600
8600
9900
1000
ENDCHAR
STARTCHAR nine
ENCODING 57
SWIDTH 462 0
DWIDTH 5 0
BBX 5 9 0 -1
BITMAP
0A40
2480
2180
6280
6640
1600
4600
A800
1000
ENDCHAR
STARTCHAR colon
ENCODING 58
SWIDTH 226 0
DWIDTH 3 0
BBX 2 3 0 0
BITMAP
A0
00
80
ENDCHAR
STARTCHAR semicolon
ENCODING 59
SWIDTH 212 0
DWIDTH 2 0
BBX 2 4 0 -1
BITMAP
90
00
80
80
ENDCHAR
STARTCHAR less
ENCODING 60
SWIDTH 271 0
DWIDTH 3 0
BBX 3 5 0 1
BITMAP
08
64
C0
90
20
ENDCHAR
STARTCHAR equal
ENCODING 61
SWIDTH 374 0
DWIDTH 4 0
BBX 4 3 0 2
BITMAP
6A
69
54
ENDCHAR
STARTCHAR greater
ENCODING 62
SWIDTH 250 0
DWIDTH 3 0
BBX 4 5 -1 1
BITMAP
14
08
0A
18
50
ENDCHAR
STARTCHAR question
ENCODING 63
SWIDTH 413 0
DWIDTH 5 0
BBX 5 9 0 -1
BITMAP
2A80
60C0
0180
0600
2400
6000
5000
9000
4000
ENDCHAR
STARTCHAR at
ENCODING 64
SWIDTH 648 0
DWIDTH 7 0
BBX 8 7 -1 0
BITMAP
0658
1856
2276
6522
6862
2698
1964
ENDCHAR
STARTCHAR A
ENCODING 65
SWIDTH 552 0
DWIDTH 6 0
BBX 7 11 -1 -3
BITMAP
00A4
0254
0224
0920
0C30
1EB0
79A0
3090
7090
90A0
0050
ENDCHAR
STARTCHAR B
ENCODING 66
SWIDTH 607 0
DWIDTH 7 0
BBX 7 10 0 -2
BITMAP
1EA0
2C24
1834
1460
2A80
3590
6060
90A0
D1C0
EA00
ENDCHAR
STARTCHAR C
ENCODING 67
SWIDTH 548 0
DWIDTH 6 0
BBX 6 10 0 -2
BITMAP
06A0
1C30
3470
7050
A000
D000
D000
D040
9140
2A00
ENDCHAR
STARTCHAR D
ENCODING 68
SWIDTH 632 0
DWIDTH 7 0
BBX 7 10 0 -2
BITMAP
1E90
1470
1824
1828
2424
3034
3070
6090
9280
A900
ENDCHAR
STARTCHAR E
ENCODING 69
SWIDTH 523 0
DWIDTH 6 0
BBX 7 10 -1 -2
BITMAP
01A8
0A0C
0C28
0C10
0A40
1940
3000
7010
3450
1E40
ENDCHAR
STARTCHAR F
ENCODING 70
SWIDTH 585 0
DWIDTH 6 0
BBX 7 10 0 -2
BITMAP
1AA0
6024
6420
0090
2AE0
1240
0300
0600
0900
0900
ENDCHAR
STARTCHAR G
ENCODING 71
SWIDTH 612 0
DWIDTH 7 0
BBX 6 10 0 -2
BITMAP
02A0
0920
2830
3460
6000
A2A0
9050
9080
9180
2A00
ENDCHAR
STARTCHAR H
ENCODING 72
SWIDTH 649 0
DWIDTH 7 0
BBX 7 10 0 -2
BITMAP
0808
0C18
1824
2420
3574
7AA4
6190
90C0
90C0
C080
ENDCHAR
STARTCHAR I
ENCODING 73
SWIDTH 537 0
DWIDTH 6 0
BBX 7 10 -1 -2
BITMAP
00A4
0194
0264
0230
0270
01A4
29D0
9080
9140
2A00
ENDCHAR
STARTCHAR J
ENCODING 74
SWIDTH 500 0
DWIDTH 6 0
BBX 8 10 -1 -2
BITMAP
02B9
0030
0060
0060
0090
28C0
61C0
9280
8300
6900
ENDCHAR
STARTCHAR K
ENCODING 75
SWIDTH 497 0
DWIDTH 5 0
BBX 7 11 -1 -3
BITMAP
0308
0618
0924
0CA0
1A80
2E40
24C0
30C0
7180
6240
00A0
ENDCHAR
STARTCHAR L
ENCODING 76
SWIDTH 492 0
DWIDTH 5 0
BBX 7 10 -1 -2
BITMAP
0078
00D8
01E4
16D0
0640
0300
0200
0900
BC00
A6A0
ENDCHAR
STARTCHAR M
ENCODING 77
SWIDTH 733 0
DWIDTH 8 0
BBX 9 10 -1 -2
BITMAP
01C1C0
02C280
028680
068940
09D600
1CA300
8CE600
98D600
A44A00
B00700
ENDCHAR
STARTCHAR N
ENCODING 78
SWIDTH 541 0
DWIDTH 6 0
BBX 8 10 -1 -2
BITMAP
060A
0A1A
0A29
1A34
1630
2220
3260
6290
62C0
6180
ENDCHAR
STARTCHAR O
ENCODING 79
SWIDTH 567 0
DWIDTH 6 0
BBX 6 10 0 -2
BITMAP
0B90
1860
3060
6060
9060
9090
C090
C180
9240
6900
ENDCHAR
STARTCHAR P
ENCODING 80
SWIDTH 552 0
DWIDTH 6 0
BBX 8 10 -1 -2
BITMAP
0668
1A0C
050D
091C
0824
0D90
1800
2400
3400
6000
ENDCHAR
STARTCHAR Q
ENCODING 81
SWIDTH 583 0
DWIDTH 6 0
BBX 6 10 0 -2
BITMAP
0690
1820
3030
6030
9060
9060
60D0
1580
6B00
6990
ENDCHAR
STARTCHAR R
ENCODING 82
SWIDTH 560 0
DWIDTH 6 0
BBX 7 11 0 -3
BITMAP
19A0
6834
1824
1430
2490
7E40
6200
6200
9240
8240
0180
ENDCHAR
STARTCHAR S
ENCODING 83
SWIDTH 474 0
DWIDTH 5 0
BBX 7 10 -1 -2
BITMAP
06A0
0C24
1C24
0D00
0700
0280
00C0
6080
6140
3A00
ENDCHAR
STARTCHAR T
ENCODING 84
SWIDTH 423 0
DWIDTH 5 0
BBX 6 10 0 -2
BITMAP
7FA0
0600
0900
0C00
0800
1800
2400
3000
3000
6000
ENDCHAR
STARTCHAR U
ENCODING 85
SWIDTH 574 0
DWIDTH 6 0
BBX 7 10 0 -2
BITMAP
1828
2834
2430
3060
6090
90C0
90C0
C180
D280
7880
ENDCHAR
STARTCHAR V
ENCODING 86
SWIDTH 503 0
DWIDTH 6 0
BBX 6 10 0 -2
BITMAP
2430
3060
6090
60C0
5180
5240
5300
5500
2800
2400
ENDCHAR
STARTCHAR W
ENCODING 87
SWIDTH 817 0
DWIDTH 9 0
BBX 9 10 0 -2
BITMAP
181180
24A180
30D180
60C140
50C240
918300
828600
828900
998800
74A000
ENDCHAR
STARTCHAR X
ENCODING 88
SWIDTH 579 0
DWIDTH 6 0
BBX 9 10 -1 -2
BITMAP
1A0740
220D00
1A6400
05A000
01C000
028000
068000
0C8000
288100
606800
ENDCHAR
STARTCHAR Y
ENCODING 89
SWIDTH 532 0
DWIDTH 6 0
BBX 6 10 0 -2
BITMAP
1830
2470
3060
6090
50C0
9280
7980
0240
4600
B800
ENDCHAR
STARTCHAR Z
ENCODING 90
SWIDTH 455 0
DWIDTH 5 0
BBX 7 10 -1 -2
BITMAP
0BF4
0424
0060
00C0
0240
0900
1800
2000
9540
AA80
ENDCHAR
STARTCHAR bracketleft
ENCODING 91
SWIDTH 202 0
DWIDTH 2 0
BBX 4 11 -1 -2
BITMAP
07
09
08
08
14
20
20
20
50
60
10
ENDCHAR
STARTCHAR backslash
ENCODING 92
SWIDTH 273 0
DWIDTH 3 0
BBX 3 8 0 0
BITMAP
50
50
60
20
20
20
24
14
ENDCHAR
STARTCHAR bracketright
ENCODING 93
SWIDTH 216 0
DWIDTH 2 0
BBX 4 11 -1 -2
BITMAP
0A
06
05
08
08
08
14
20
20
A0
40
ENDCHAR
STARTCHAR asciicircum
ENCODING 94
SWIDTH 287 0
DWIDTH 3 0
BBX 4 4 0 4
BITMAP
1C
29
55
85
ENDCHAR
STARTCHAR underscore
ENCODING 95
SWIDTH 439 0
DWIDTH 5 0
BBX 6 1 -1 0
BITMAP
AA90
ENDCHAR
STARTCHAR grave
ENCODING 96
SWIDTH 567 0
DWIDTH 6 0
BBX 2 2 3 6
BITMAP
40
50
ENDCHAR
STARTCHAR a
ENCODING 97
SWIDTH 435 0
DWIDTH 5 0
BBX 6 5 0 0
BITMAP
0400
2900
8510
C840
EA40
ENDCHAR
STARTCHAR b
ENCODING 98
SWIDTH 415 0
DWIDTH 5 0
BBX 6 8 0 0
BITMAP
1400
2800
3400
7000
A950
8600
8800
A400
ENDCHAR
STARTCHAR c
ENCODING 99
SWIDTH 363 0
DWIDTH 4 0
BBX 5 6 0 -1
BITMAP
1400
6800
C440
8140
9900
1000
ENDCHAR
STARTCHAR d
ENCODING 100
SWIDTH 483 0
DWIDTH 5 0
BBX 6 8 0 0
BITMAP
0080
00C0
01C0
0680
6740
8610
8910
EA40
ENDCHAR
STARTCHAR e
ENCODING 101
SWIDTH 372 0
DWIDTH 4 0
BBX 5 6 0 -1
BITMAP
1400
6800
9440
D140
A900
1000
ENDCHAR
STARTCHAR f
ENCODING 102
SWIDTH 325 0
DWIDTH 4 0
BBX 5 13 -1 -5
BITMAP
0500
0600
0900
0800
0840
2940
3000
2800
6500
5200
8500
8800
F400
ENDCHAR
STARTCHAR g
ENCODING 103
SWIDTH 459 0
DWIDTH 5 0
BBX 6 11 0 -6
BITMAP
1400
6A00
8610
8650
AA40
1C00
6800
9800
9400
B000
1000
ENDCHAR
STARTCHAR h
ENCODING 104
SWIDTH 465 0
DWIDTH 5 0
BBX 6 8 0 0
BITMAP
1400
2400
3000
2100
6B00
9610
8550
8A40
ENDCHAR
STARTCHAR i
ENCODING 105
SWIDTH 274 0
DWIDTH 3 0
BBX 4 7 0 0
BITMAP
14
00
10
60
91
85
A4
ENDCHAR
STARTCHAR j
ENCODING 106
SWIDTH 267 0
DWIDTH 3 0
BBX 7 12 -3 -5
BITMAP
0050
0000
0000
0180
0244
0210
0380
0600
1900
2900
5800
2400
ENDCHAR
STARTCHAR k
ENCODING 107
SWIDTH 440 0
DWIDTH 5 0
BBX 6 9 0 -1
BITMAP
1400
2400
3000
2100
6A00
A910
9840
8A40
0400
ENDCHAR
STARTCHAR l
ENCODING 108
SWIDTH 218 0
DWIDTH 2 0
BBX 3 8 0 0
BITMAP
14
24
30
20
60
90
C0
80
ENDCHAR
STARTCHAR m
ENCODING 109
SWIDTH 717 0
DWIDTH 8 0
BBX 9 4 0 0
BITMAP
6B7400
636440
963140
C53900
ENDCHAR
STARTCHAR n
ENCODING 110
SWIDTH 461 0
DWIDTH 5 0
BBX 6 4 0 0
BITMAP
6A00
9610
8550
8A40
ENDCHAR
STARTCHAR o
ENCODING 111
SWIDTH 393 0
DWIDTH 4 0
BBX 5 5 0 0
BITMAP
1000
6800
EA40
9D00
A800
ENDCHAR
STARTCHAR p
ENCODING 112
SWIDTH 451 0
DWIDTH 5 0
BBX 7 9 -1 -5
BITMAP
1E80
2884
2154
3F90
6400
5000
9000
C000
4000
ENDCHAR
STARTCHAR q
ENCODING 113
SWIDTH 462 0
DWIDTH 5 0
BBX 6 10 0 -5
BITMAP
0400
6B00
8300
C610
D940
1A00
0C00
1800
2800
1800
ENDCHAR
STARTCHAR r
ENCODING 114
SWIDTH 406 0
DWIDTH 4 0
BBX 6 6 -1 -1
BITMAP
0C00
1E00
2240
1620
4680
0100
ENDCHAR
STARTCHAR s
ENCODING 115
SWIDTH 351 0
DWIDTH 4 0
BBX 3 6 0 -1
BITMAP
24
34
58
4C
A8
10
ENDCHAR
STARTCHAR t
ENCODING 116
SWIDTH 301 0
DWIDTH 3 0
BBX 6 9 -1 -1
BITMAP
0100
0A00
6E90
0C00
1800
1440
2040
2A00
0400
ENDCHAR
STARTCHAR u
ENCODING 117
SWIDTH 468 0
DWIDTH 5 0
BBX 6 4 0 0
BITMAP
5300
8610
C950
AA40
ENDCHAR
STARTCHAR v
ENCODING 118
SWIDTH 427 0
DWIDTH 5 0
BBX 6 5 0 0
BITMAP
0100
9700
C650
8800
A000
ENDCHAR
STARTCHAR w
ENCODING 119
SWIDTH 646 0
DWIDTH 7 0
BBX 8 5 0 0
BITMAP
0100
9630
8535
8850
9680
ENDCHAR
STARTCHAR x
ENCODING 120
SWIDTH 399 0
DWIDTH 4 0
BBX 6 5 -1 0
BITMAP
1040
1A80
0E00
1C10
6680
ENDCHAR
STARTCHAR y
ENCODING 121
SWIDTH 406 0
DWIDTH 4 0
BBX 4 9 0 -5
BITMAP
93
C6
89
EC
08
18
14
24
10
ENDCHAR
STARTCHAR z
ENCODING 122
SWIDTH 448 0
DWIDTH 5 0
BBX 7 10 -1 -5
BITMAP
0140
0980
0180
0354
0590
0680
1540
2200
6900
2800
ENDCHAR
STARTCHAR braceleft
ENCODING 123
SWIDTH 243 0
DWIDTH 3 0
BBX 4 10 0 -1
BITMAP
09
24
20
20
60
50
50
80
80
D0
ENDCHAR
STARTCHAR bar
ENCODING 124
SWIDTH 253 0
DWIDTH 3 0
BBX 3 8 0 0
BITMAP
18
14
20
20
60
50
90
C0
ENDCHAR
STARTCHAR braceright
ENCODING 125
SWIDTH 243 0
DWIDTH 3 0
BBX 4 11 -1 -2
BITMAP
09
06
05
08
08
08
14
20
20
A0
40
ENDCHAR
STARTCHAR asciitilde
ENCODING 126
SWIDTH 329 0
DWIDTH 4 0
BBX 4 2 0 3
BITMAP
51
59
ENDCHAR
STARTCHAR uni00A0
ENCODING 160
SWIDTH 280 0
DWIDTH 3 0
BBX 1 1 0 0
BITMAP
00
ENDCHAR
STARTCHAR exclamdown
ENCODING 161
SWIDTH 249 0
DWIDTH 3 0
BBX 3 9 0 -1
BITMAP
18
00
24
30
60
A0
90
C0
40
ENDCHAR
STARTCHAR cent
ENCODING 162
SWIDTH 322 0
DWIDTH 4 0
BBX 4 8 0 0
BITMAP
04
19
66
85
80
80
A4
50
ENDCHAR
STARTCHAR sterling
ENCODING 163
SWIDTH 318 0
DWIDTH 4 0
BBX 5 8 -1 0
BITMAP
0140
0880
0940
1400
2900
2000
6500
5500
ENDCHAR
STARTCHAR currency
ENCODING 164
SWIDTH 347 0
DWIDTH 4 0
BBX 4 4 0 2
BITMAP
55
28
68
95
ENDCHAR
STARTCHAR yen
ENCODING 165
SWIDTH 326 0
DWIDTH 4 0
BBX 4 6 0 1
BITMAP
52
25
28
64
74
60
ENDCHAR
STARTCHAR brokenbar
ENCODING 166
SWIDTH 253 0
DWIDTH 3 0
BBX 3 8 0 0
BITMAP
18
14
20
10
10
50
90
C0
ENDCHAR
STARTCHAR section
ENCODING 167
SWIDTH 297 0
DWIDTH 3 0
BBX 5 8 -1 0
BITMAP
0980
0840
0900
1600
2200
1800
1500
5900
ENDCHAR
STARTCHAR dieresis
ENCODING 168
SWIDTH 567 0
DWIDTH 6 0
BBX 3 1 2 6
BITMAP
58
ENDCHAR
STARTCHAR copyright
ENCODING 169
SWIDTH 456 0
DWIDTH 5 0
BBX 6 6 0 2
BITMAP
1940
5650
9550
9540
5540
1500
ENDCHAR
STARTCHAR ordfeminine
ENCODING 170
SWIDTH 373 0
DWIDTH 4 0
BBX 6 5 -1 0
BITMAP
1A00
2200
2610
2640
6A00
ENDCHAR
STARTCHAR guillemotleft
ENCODING 171
SWIDTH 346 0
DWIDTH 4 0
BBX 4 4 0 0
BITMAP
69
94
A4
58
ENDCHAR
STARTCHAR logicalnot
ENCODING 172
SWIDTH 512 0
DWIDTH 6 0
BBX 6 3 0 2
BITMAP
5540
5590
0080
ENDCHAR
STARTCHAR sfthyphen
ENCODING 173
SWIDTH 353 0
DWIDTH 4 0
BBX 4 1 0 3
BITMAP
A9
ENDCHAR
STARTCHAR registered
ENCODING 174
SWIDTH 456 0
DWIDTH 5 0
BBX 6 6 0 2
BITMAP
1940
5A50
8A50
8940
5240
1500
ENDCHAR
STARTCHAR macron
ENCODING 175
SWIDTH 567 0
DWIDTH 6 0
BBX 3 2 2 6
BITMAP
10
68
ENDCHAR
STARTCHAR degree
ENCODING 176
SWIDTH 144 0
DWIDTH 2 0
BBX 2 2 0 6
BITMAP
10
60
ENDCHAR
STARTCHAR twosuperior
ENCODING 178
SWIDTH 268 0
DWIDTH 3 0
BBX 4 5 0 3
BITMAP
29
18
18
60
A8
ENDCHAR
STARTCHAR threesuperior
ENCODING 179
SWIDTH 262 0
DWIDTH 3 0
BBX 4 5 0 3
BITMAP
29
18
18
48
A4
ENDCHAR
STARTCHAR acute
ENCODING 180
SWIDTH 567 0
DWIDTH 6 0
BBX 2 2 3 6
BITMAP
10
90
ENDCHAR
STARTCHAR mu
ENCODING 181
SWIDTH 453 0
DWIDTH 5 0
BBX 6 6 -1 -2
BITMAP
2140
2240
6210
BA90
8000
8000
ENDCHAR
STARTCHAR paragraph
ENCODING 182
SWIDTH 411 0
DWIDTH 5 0
BBX 6 8 0 0
BITMAP
1B90
7E80
BD40
7D40
0A00
1600
1600
2500
ENDCHAR
STARTCHAR periodcentered
ENCODING 183
SWIDTH 168 0
DWIDTH 2 0
BBX 2 1 0 3
BITMAP
90
ENDCHAR
STARTCHAR cedilla
ENCODING 184
SWIDTH 567 0
DWIDTH 6 0
BBX 2 3 3 -2
BITMAP
80
60
40
ENDCHAR
STARTCHAR onesuperior
ENCODING 185
SWIDTH 150 0
DWIDTH 2 0
BBX 2 5 0 3
BITMAP
30
20
20
50
80
ENDCHAR
STARTCHAR ordmasculine
ENCODING 186
SWIDTH 319 0
DWIDTH 4 0
BBX 5 6 -1 -1
BITMAP
1A00
3640
2600
2800
6900
4000
ENDCHAR
STARTCHAR guillemotright
ENCODING 187
SWIDTH 346 0
DWIDTH 4 0
BBX 4 4 -1 0
BITMAP
25
1A
26
58
ENDCHAR
STARTCHAR onequarter
ENCODING 188
SWIDTH 579 0
DWIDTH 6 0
BBX 6 8 0 0
BITMAP
3060
2080
2240
5660
98A0
26A0
6190
8080
ENDCHAR
STARTCHAR onehalf
ENCODING 189
SWIDTH 603 0
DWIDTH 7 0
BBX 7 8 0 0
BITMAP
2020
2080
2140
5664
5864
2420
6080
82A0
ENDCHAR
STARTCHAR threequarters
ENCODING 190
SWIDTH 669 0
DWIDTH 7 0
BBX 7 8 0 0
BITMAP
2918
1820
1890
4998
A628
09E8
1864
2020
ENDCHAR
STARTCHAR questiondown
ENCODING 191
SWIDTH 413 0
DWIDTH 5 0
BBX 6 9 -1 -1
BITMAP
0090
0040
00C0
0280
1900
2000
5080
6640
0400
ENDCHAR
STARTCHAR Agrave
ENCODING 192
SWIDTH 552 0
DWIDTH 6 0
BBX 7 14 -1 -3
BITMAP
0010
0024
0000
00A4
0254
0224
0920
0C30
1EB0
79A0
3090
7090
90A0
0050
ENDCHAR
STARTCHAR Aacute
ENCODING 193
SWIDTH 552 0
DWIDTH 6 0
BBX 7 14 -1 -3
BITMAP
0004
0024
0000
00A4
0254
0224
0920
0C30
1EB0
79A0
3090
7090
90A0
0050
ENDCHAR
STARTCHAR Acircumflex
ENCODING 194
SWIDTH 552 0
DWIDTH 6 0
BBX 7 13 -1 -3
BITMAP
0014
0058
00A4
0254
0224
0920
0C30
1EB0
79A0
3090
7090
90A0
0050
ENDCHAR
STARTCHAR Atilde
ENCODING 195
SWIDTH 552 0
DWIDTH 6 0
BBX 8 13 -1 -3
BITMAP
0010
0059
00A4
0254
0224
0920
0C30
1EB0
79A0
3090
7090
90A0
0050
ENDCHAR
STARTCHAR Adieresis
ENCODING 196
SWIDTH 552 0
DWIDTH 6 0
BBX 8 12 -1 -3
BITMAP
0055
00A4
0254
0224
0920
0C30
1EB0
79A0
3090
7090
90A0
0050
ENDCHAR
STARTCHAR Aring
ENCODING 197
SWIDTH 552 0
DWIDTH 6 0
BBX 7 13 -1 -3
BITMAP
0010
0024
00A4
0254
0224
0920
0C30
1EB0
79A0
3090
7090
90A0
0050
ENDCHAR
STARTCHAR AE
ENCODING 198
SWIDTH 869 0
DWIDTH 10 0
BBX 11 11 -1 -3
BITMAP
00A6A4
025D18
022C24
092C10
0C3A40
1EB940
79B000
30A010
70B050
90BE40
005000
ENDCHAR
STARTCHAR Ccedilla
ENCODING 199
SWIDTH 548 0
DWIDTH 6 0
BBX 6 13 0 -5
BITMAP
06A0
1C30
3470
7050
A000
D000
D000
D040
9140
2A00
1800
0800
1000
ENDCHAR
STARTCHAR Egrave
ENCODING 200
SWIDTH 523 0
DWIDTH 6 0
BBX 7 13 -1 -2
BITMAP
0050
0020
0000
01A8
0A0C
0C28
0C10
0A40
1940
3000
7010
3450
1E40
ENDCHAR
STARTCHAR Eacute
ENCODING 201
SWIDTH 523 0
DWIDTH 6 0
BBX 7 13 -1 -2
BITMAP
0004
0064
0000
01A8
0A0C
0C28
0C10
0A40
1940
3000
7010
3450
1E40
ENDCHAR
STARTCHAR Ecircumflex
ENCODING 202
SWIDTH 523 0
DWIDTH 6 0
BBX 7 13 -1 -2
BITMAP
0014
0058
0000
01A8
0A0C
0C28
0C10
0A40
1940
3000
7010
3450
1E40
ENDCHAR
STARTCHAR Edieresis
ENCODING 203
SWIDTH 523 0
DWIDTH 6 0
BBX 7 11 -1 -2
BITMAP
0058
01A8
0A0C
0C28
0C10
0A40
1940
3000
7010
3450
1E40
ENDCHAR
STARTCHAR Igrave
ENCODING 204
SWIDTH 537 0
DWIDTH 6 0
BBX 7 13 -1 -2
BITMAP
0010
0024
0000
00A4
0194
0264
0230
0270
01A4
29D0
9080
9140
2A00
ENDCHAR
STARTCHAR Iacute
ENCODING 205
SWIDTH 537 0
DWIDTH 6 0
BBX 7 13 -1 -2
BITMAP
0004
0024
0000
00A4
0194
0264
0230
0270
01A4
29D0
9080
9140
2A00
ENDCHAR
STARTCHAR Icircumflex
ENCODING 206
SWIDTH 537 0
DWIDTH 6 0
BBX 8 12 -1 -2
BITMAP
0014
0015
00A4
0194
0264
0230
0270
01A4
29D0
9080
9140
2A00
ENDCHAR
STARTCHAR Idieresis
ENCODING 207
SWIDTH 537 0
DWIDTH 6 0
BBX 8 11 -1 -2
BITMAP
0055
00A4
0194
0264
0230
0270
01A4
29D0
9080
9140
2A00
ENDCHAR
STARTCHAR Eth
ENCODING 208
SWIDTH 632 0
DWIDTH 7 0
BBX 7 10 0 -2
BITMAP
1E90
1470
1824
1828
6924
7434
3070
6090
9280
A900
ENDCHAR
STARTCHAR Ntilde
ENCODING 209
SWIDTH 541 0
DWIDTH 6 0
BBX 8 12 -1 -2
BITMAP
0040
0164
060A
0A1A
0A29
1A34
1630
2220
3260
6290
62C0
6180
ENDCHAR
STARTCHAR Ograve
ENCODING 210
SWIDTH 567 0
DWIDTH 6 0
BBX 6 13 0 -2
BITMAP
0140
0080
0000
0B90
1860
3060
6060
9060
9090
C090
C180
9240
6900
ENDCHAR
STARTCHAR Oacute
ENCODING 211
SWIDTH 567 0
DWIDTH 6 0
BBX 6 13 0 -2
BITMAP
0040
0180
0000
0B90
1860
3060
6060
9060
9090
C090
C180
9240
6900
ENDCHAR
STARTCHAR Ocircumflex
ENCODING 212
SWIDTH 567 0
DWIDTH 6 0
BBX 6 13 0 -2
BITMAP
0080
0150
0000
0B90
1860
3060
6060
9060
9090
C090
C180
9240
6900
ENDCHAR
STARTCHAR Otilde
ENCODING 213
SWIDTH 567 0
DWIDTH 6 0
BBX 6 12 0 -2
BITMAP
0100
0690
0B90
1860
3060
6060
9060
9090
C090
C180
9240
6900
ENDCHAR
STARTCHAR Odieresis
ENCODING 214
SWIDTH 567 0
DWIDTH 6 0
BBX 6 11 0 -2
BITMAP
0250
0B90
1860
3060
6060
9060
9090
C090
C180
9240
6900
ENDCHAR
STARTCHAR multiply
ENCODING 215
SWIDTH 281 0
DWIDTH 3 0
BBX 4 4 0 2
BITMAP
55
28
30
A4
ENDCHAR
STARTCHAR Oslash
ENCODING 216
SWIDTH 597 0
DWIDTH 7 0
BBX 6 11 0 -3
BITMAP
07B0
18A0
24E0
32A0
6260
9960
A890
B4C0
A240
E900
4000
ENDCHAR
STARTCHAR Ugrave
ENCODING 217
SWIDTH 574 0
DWIDTH 6 0
BBX 7 12 0 -2
BITMAP
0140
0080
1828
2834
2430
3060
6090
90C0
90C0
C180
D280
7880
ENDCHAR
STARTCHAR Uacute
ENCODING 218
SWIDTH 574 0
DWIDTH 6 0
BBX 7 12 0 -2
BITMAP
0010
0090
1828
2834
2430
3060
6090
90C0
90C0
C180
D280
7880
ENDCHAR
STARTCHAR Ucircumflex
ENCODING 219
SWIDTH 574 0
DWIDTH 6 0
BBX 7 12 0 -2
BITMAP
0050
0160
1828
2834
2430
3060
6090
90C0
90C0
C180
D280
7880
ENDCHAR
STARTCHAR Udieresis
ENCODING 220
SWIDTH 574 0
DWIDTH 6 0
BBX 7 11 0 -2
BITMAP
0160
1828
2834
2430
3060
6090
90C0
90C0
C180
D280
7880
ENDCHAR
STARTCHAR Yacute
ENCODING 221
SWIDTH 532 0
DWIDTH 6 0
BBX 6 12 0 -2
BITMAP
0040
0180
1830
2470
3060
6090
50C0
9280
7980
0240
4600
B800
ENDCHAR
STARTCHAR Thorn
ENCODING 222
SWIDTH 569 0
DWIDTH 6 0
BBX 7 10 -1 -2
BITMAP
0600
0600
0A64
2C18
181C
1828
2460
3680
3000
6000
ENDCHAR
STARTCHAR germandbls
ENCODING 223
SWIDTH 495 0
DWIDTH 5 0
BBX 7 13 -2 -5
BITMAP
0010
01A4
0224
0220
0520
0824
1818
1A94
1650
2140
2200
6600
7800
ENDCHAR
STARTCHAR agrave
ENCODING 224
SWIDTH 435 0
DWIDTH 5 0
BBX 6 7 0 0
BITMAP
1400
0800
0400
2900
8510
C840
EA40
ENDCHAR
STARTCHAR aacute
ENCODING 225
SWIDTH 435 0
DWIDTH 5 0
BBX 6 7 0 0
BITMAP
0100
1900
0400
2900
8510
C840
EA40
ENDCHAR
STARTCHAR acircumflex
ENCODING 226
SWIDTH 435 0
DWIDTH 5 0
BBX 6 7 0 0
BITMAP
0500
1600
0400
2900
8510
C840
EA40
ENDCHAR
STARTCHAR atilde
ENCODING 227
SWIDTH 435 0
DWIDTH 5 0
BBX 6 6 0 0
BITMAP
2600
0400
2900
8510
C840
EA40
ENDCHAR
STARTCHAR adieresis
ENCODING 228
SWIDTH 435 0
DWIDTH 5 0
BBX 6 6 0 0
BITMAP
1600
0400
2900
8510
C840
EA40
ENDCHAR
STARTCHAR aring
ENCODING 229
SWIDTH 435 0
DWIDTH 5 0
BBX 6 7 0 0
BITMAP
0400
1800
0400
2900
8510
C840
EA40
ENDCHAR
STARTCHAR ae
ENCODING 230
SWIDTH 594 0
DWIDTH 7 0
BBX 7 6 0 -1
BITMAP
0450
2A50
8A80
CA08
E650
0100
ENDCHAR
STARTCHAR ccedilla
ENCODING 231
SWIDTH 363 0
DWIDTH 4 0
BBX 5 8 0 -3
BITMAP
1400
6800
C440
8140
9900
6000
2400
1000
ENDCHAR
STARTCHAR egrave
ENCODING 232
SWIDTH 372 0
DWIDTH 4 0
BBX 5 8 0 -1
BITMAP
1000
1800
1400
6800
9440
D140
A900
1000
ENDCHAR
STARTCHAR eacute
ENCODING 233
SWIDTH 372 0
DWIDTH 4 0
BBX 5 7 0 -1
BITMAP
1800
1400
6800
9440
D140
A900
1000
ENDCHAR
STARTCHAR ecircumflex
ENCODING 234
SWIDTH 372 0
DWIDTH 4 0
BBX 5 8 0 -1
BITMAP
0400
1500
1400
6800
9440
D140
A900
1000
ENDCHAR
STARTCHAR edieresis
ENCODING 235
SWIDTH 372 0
DWIDTH 4 0
BBX 5 7 0 -1
BITMAP
2500
1400
6800
9440
D140
A900
1000
ENDCHAR
STARTCHAR igrave
ENCODING 236
SWIDTH 274 0
DWIDTH 3 0
BBX 4 7 0 0
BITMAP
40
60
10
60
91
85
A4
ENDCHAR
STARTCHAR iacute
ENCODING 237
SWIDTH 274 0
DWIDTH 3 0
BBX 4 7 0 0
BITMAP
04
18
10
60
91
85
A4
ENDCHAR
STARTCHAR icircumflex
ENCODING 238
SWIDTH 274 0
DWIDTH 3 0
BBX 4 7 0 0
BITMAP
14
58
10
60
91
85
A4
ENDCHAR
STARTCHAR idieresis
ENCODING 239
SWIDTH 274 0
DWIDTH 3 0
BBX 4 6 0 0
BITMAP
58
10
60
91
85
A4
ENDCHAR
STARTCHAR eth
ENCODING 240
SWIDTH 393 0
DWIDTH 4 0
BBX 5 7 0 0
BITMAP
0500
1A40
1500
6900
EA40
9D00
A800
ENDCHAR
STARTCHAR ntilde
ENCODING 241
SWIDTH 461 0
DWIDTH 5 0
BBX 6 6 0 0
BITMAP
2600
0000
6A00
9610
8550
8A40
ENDCHAR
STARTCHAR ograve
ENCODING 242
SWIDTH 393 0
DWIDTH 4 0
BBX 5 7 0 0
BITMAP
1000
1800
1000
6800
EA40
9D00
A800
ENDCHAR
STARTCHAR oacute
ENCODING 243
SWIDTH 393 0
DWIDTH 4 0
BBX 5 6 0 0
BITMAP
1800
1000
6800
EA40
9D00
A800
ENDCHAR
STARTCHAR ocircumflex
ENCODING 244
SWIDTH 393 0
DWIDTH 4 0
BBX 5 7 0 0
BITMAP
0400
1500
1000
6800
EA40
9D00
A800
ENDCHAR
STARTCHAR otilde
ENCODING 245
SWIDTH 393 0
DWIDTH 4 0
BBX 5 7 0 0
BITMAP
1000
5900
1000
6800
EA40
9D00
A800
ENDCHAR
STARTCHAR odieresis
ENCODING 246
SWIDTH 393 0
DWIDTH 4 0
BBX 5 6 0 0
BITMAP
2500
1000
6800
EA40
9D00
A800
ENDCHAR
STARTCHAR divide
ENCODING 247
SWIDTH 350 0
DWIDTH 4 0
BBX 4 4 0 2
BITMAP
04
55
95
20
ENDCHAR
STARTCHAR oslash
ENCODING 248
SWIDTH 406 0
DWIDTH 4 0
BBX 7 6 -1 -1
BITMAP
0580
1A44
2990
2740
2A00
5000
ENDCHAR
STARTCHAR ugrave
ENCODING 249
SWIDTH 468 0
DWIDTH 5 0
BBX 6 7 0 0
BITMAP
1400
0800
0000
5300
8610
C950
AA40
ENDCHAR
STARTCHAR uacute
ENCODING 250
SWIDTH 468 0
DWIDTH 5 0
BBX 6 7 0 0
BITMAP
0100
0900
0000
5300
8610
C950
AA40
ENDCHAR
STARTCHAR ucircumflex
ENCODING 251
SWIDTH 468 0
DWIDTH 5 0
BBX 6 7 0 0
BITMAP
0500
1600
0000
5300
8610
C950
AA40
ENDCHAR
STARTCHAR udieresis
ENCODING 252
SWIDTH 468 0
DWIDTH 5 0
BBX 6 6 0 0
BITMAP
1600
0000
5300
8610
C950
AA40
ENDCHAR
STARTCHAR yacute
ENCODING 253
SWIDTH 406 0
DWIDTH 4 0
BBX 4 12 0 -5
BITMAP
01
09
00
93
C6
89
EC
08
18
14
24
10
ENDCHAR
STARTCHAR thorn
ENCODING 254
SWIDTH 451 0
DWIDTH 5 0
BBX 7 13 -1 -5
BITMAP
0500
0900
0800
0C00
1A80
1884
2154
3F90
6400
5000
9000
C000
4000
ENDCHAR
STARTCHAR ydieresis
ENCODING 255
SWIDTH 406 0
DWIDTH 4 0
BBX 4 11 0 -5
BITMAP
25
00
93
C6
89
EC
08
18
14
24
10
ENDCHAR
STARTCHAR dotlessi
ENCODING 305
SWIDTH 274 0
DWIDTH 3 0
BBX 4 5 0 0
BITMAP
10
60
91
85
A4
ENDCHAR
STARTCHAR Lslash
ENCODING 321
SWIDTH 492 0
DWIDTH 5 0
BBX 7 10 -1 -2
BITMAP
0078
00D8
01E4
16D0
0640
0790
1A00
0900
BC00
A6A0
ENDCHAR
STARTCHAR lslash
ENCODING 322
SWIDTH 218 0
DWIDTH 2 0
BBX 4 8 -1 0
BITMAP
05
09
0C
1E
A8
24
30
20
ENDCHAR
STARTCHAR OE
ENCODING 338
SWIDTH 918 0
DWIDTH 10 0
BBX 11 10 0 -2
BITMAP
0B96A0
186C24
307470
607400
906900
90B500
C09000
C1D050
92E080
696E00
ENDCHAR
STARTCHAR oe
ENCODING 339
SWIDTH 583 0
DWIDTH 6 0
BBX 8 5 0 0
BITMAP
1050
6A60
EA81
9E08
AA60
ENDCHAR
STARTCHAR Scaron
ENCODING 352
SWIDTH 474 0
DWIDTH 5 0
BBX 7 13 -1 -2
BITMAP
0044
0024
0000
06A0
0C24
1C24
0D00
0700
0280
00C0
6080
6140
3A00
ENDCHAR
STARTCHAR scaron
ENCODING 353
SWIDTH 351 0
DWIDTH 4 0
BBX 4 8 0 -1
BITMAP
11
18
24
34
58
4C
A8
10
ENDCHAR
STARTCHAR Ydieresis
ENCODING 376
SWIDTH 532 0
DWIDTH 6 0
BBX 6 11 0 -2
BITMAP
0250
1830
2470
3060
6090
50C0
9280
7980
0240
4600
B800
ENDCHAR
STARTCHAR Zcaron
ENCODING 381
SWIDTH 455 0
DWIDTH 5 0
BBX 7 12 -1 -2
BITMAP
0044
0060
0BF4
0424
0060
00C0
0240
0900
1800
2000
9540
AA80
ENDCHAR
STARTCHAR zcaron
ENCODING 382
SWIDTH 349 0
DWIDTH 4 0
BBX 7 12 -2 -5
BITMAP
0110
0180
0140
09C0
0140
0754
09D0
0680
2640
6200
5900
2400
ENDCHAR
STARTCHAR circumflex
ENCODING 710
SWIDTH 567 0
DWIDTH 6 0
BBX 3 2 2 6
BITMAP
14
58
ENDCHAR
STARTCHAR caron
ENCODING 711
SWIDTH 567 0
DWIDTH 6 0
BBX 3 2 2 6
BITMAP
44
24
ENDCHAR
STARTCHAR breve
ENCODING 728
SWIDTH 567 0
DWIDTH 6 0
BBX 3 2 2 6
BITMAP
40
68
ENDCHAR
STARTCHAR dotaccent
ENCODING 729
SWIDTH 567 0
DWIDTH 6 0
BBX 1 1 3 6
BITMAP
40
ENDCHAR
STARTCHAR ring
ENCODING 730
SWIDTH 567 0
DWIDTH 6 0
BBX 2 2 3 6
BITMAP
40
90
ENDCHAR
STARTCHAR ogonek
ENCODING 731
SWIDTH 567 0
DWIDTH 6 0
BBX 3 3 2 -2
BITMAP
10
A4
10
ENDCHAR
STARTCHAR tilde
ENCODING 732
SWIDTH 567 0
DWIDTH 6 0
BBX 4 2 2 6
BITMAP
10
59
ENDCHAR
STARTCHAR hungarumlaut
ENCODING 733
SWIDTH 567 0
DWIDTH 6 0
BBX 4 2 2 6
BITMAP
11
99
ENDCHAR
STARTCHAR endash
ENCODING 8211
SWIDTH 353 0
DWIDTH 4 0
BBX 4 1 0 3
BITMAP
A9
ENDCHAR
STARTCHAR emdash
ENCODING 8212
SWIDTH 508 0
DWIDTH 6 0
BBX 6 1 0 3
BITMAP
AA90
ENDCHAR
STARTCHAR quoteleft
ENCODING 8216
SWIDTH 155 0
DWIDTH 2 0
BBX 2 3 0 5
BITMAP
10
50
60
ENDCHAR
STARTCHAR quoteright
ENCODING 8217
SWIDTH 154 0
DWIDTH 2 0
BBX 2 3 0 5
BITMAP
10
70
10
ENDCHAR
STARTCHAR quotesinglbase
ENCODING 8218
SWIDTH 188 0
DWIDTH 2 0
BBX 2 2 -1 -1
BITMAP
70
20
ENDCHAR
STARTCHAR quotedblleft
ENCODING 8220
SWIDTH 289 0
DWIDTH 3 0
BBX 3 3 0 5
BITMAP
10
58
6C
ENDCHAR
STARTCHAR quotedblright
ENCODING 8221
SWIDTH 288 0
DWIDTH 3 0
BBX 4 3 0 5
BITMAP
14
79
14
ENDCHAR
STARTCHAR quotedblbase
ENCODING 8222
SWIDTH 323 0
DWIDTH 4 0
BBX 4 2 -1 -1
BITMAP
79
28
ENDCHAR
STARTCHAR bullet
ENCODING 8226
SWIDTH 180 0
DWIDTH 2 0
BBX 2 2 0 2
BITMAP
E0
D0
ENDCHAR
STARTCHAR ellipsis
ENCODING 8230
SWIDTH 614 0
DWIDTH 7 0
BBX 6 2 0 -1
BITMAP
8990
0440
ENDCHAR
STARTCHAR perthousand
ENCODING 8240
SWIDTH 851 0
DWIDTH 9 0
BBX 9 8 0 0
BITMAP
282000
559000
898000
660000
099240
1A2980
222880
929A40
ENDCHAR
STARTCHAR guilsinglleft
ENCODING 8249
SWIDTH 202 0
DWIDTH 2 0
BBX 2 4 0 0
BITMAP
60
80
80
80
ENDCHAR
STARTCHAR guilsinglright
ENCODING 8250
SWIDTH 202 0
DWIDTH 2 0
BBX 3 4 -1 0
BITMAP
20
18
24
50
ENDCHAR
STARTCHAR fraction
ENCODING 8260
SWIDTH 600 0
DWIDTH 7 0
BBX 7 8 0 0
BITMAP
0014
0060
0080
0240
0500
0800
2400
6000
ENDCHAR
STARTCHAR Euro
ENCODING 8364
SWIDTH 334 0
DWIDTH 4 0
BBX 5 7 -1 0
BITMAP
0680
0800
2A00
7900
2000
1600
0400
ENDCHAR
STARTCHAR minus
ENCODING 8722
SWIDTH 353 0
DWIDTH 4 0
BBX 4 1 0 3
BITMAP
A9
ENDCHAR
STARTCHAR fi
ENCODING 64257
SWIDTH 549 0
DWIDTH 6 0
BBX 8 13 -1 -5
BITMAP
0500
0614
0900
0810
0860
2991
3085
28A4
6500
5200
8500
8800
F400
ENDCHAR
STARTCHAR fl
ENCODING 64258
SWIDTH 516 0
DWIDTH 6 0
BBX 7 13 -1 -5
BITMAP
0514
0618
0924
0830
0870
29A0
3090
2880
6500
5200
8500
8800
F400
ENDCHAR
STARTCHAR .notdef
ENCODING -1
SWIDTH 280 0
DWIDTH 3 0
BBX 1 1 0 0
BITMAP
00
ENDCHAR
ENDFONT
